<svg width="22" height="22" viewBox="0 0 22 22" fill="none" xmlns="http://www.w3.org/2000/svg">
<path fill-rule="evenodd" clip-rule="evenodd" d="M18.1918 5.12823C18.1918 5.85733 17.6007 6.44823 16.8718 6.44823C16.1428 6.44823 15.5518 5.85733 15.5518 5.12823C15.5518 4.39914 16.1428 3.80823 16.8718 3.80823C17.6009 3.80823 18.1918 4.39914 18.1918 5.12823ZM11 14.6666C8.97497 14.6666 7.33339 13.025 7.33339 11C7.33339 8.97497 8.97497 7.33339 11 7.33339C13.025 7.33339 14.6666 8.97497 14.6666 11C14.6666 13.025 13.025 14.6666 11 14.6666ZM11 5.35133C7.8803 5.35133 5.35133 7.8803 5.35133 11C5.35133 14.1197 7.8803 16.6487 11 16.6487C14.1197 16.6487 16.6487 14.1197 16.6487 11C16.6487 7.8803 14.1197 5.35133 11 5.35133ZM11 1.98206C13.9372 1.98206 14.285 1.99323 15.4449 2.04617C16.5174 2.09516 17.0998 2.27425 17.4874 2.42498C18.0008 2.62453 18.3672 2.86292 18.7522 3.24792C19.1372 3.63275 19.3756 3.99919 19.5752 4.51275C19.7257 4.90033 19.905 5.48281 19.954 6.55531C20.0069 7.7153 20.0181 8.06317 20.0181 11.0003C20.0181 13.9375 20.0069 14.2854 19.954 15.4452C19.905 16.5177 19.7259 17.1002 19.5752 17.4878C19.3756 18.0012 19.1372 18.3676 18.7522 18.7526C18.3674 19.1376 18.001 19.376 17.4874 19.5755C17.0998 19.7261 16.5174 19.9054 15.4449 19.9543C14.285 20.0073 13.9372 20.0185 11 20.0185C8.06266 20.0185 7.71478 20.0073 6.55497 19.9543C5.48247 19.9054 4.89998 19.7263 4.51241 19.5755C3.99902 19.376 3.63258 19.1376 3.24758 18.7526C2.86275 18.3678 2.62419 18.0013 2.42464 17.4878C2.27408 17.1002 2.09481 16.5177 2.04583 15.4452C1.99289 14.2852 1.98172 13.9373 1.98172 11.0003C1.98172 8.06317 1.99289 7.7153 2.04583 6.55531C2.09481 5.48281 2.27391 4.90033 2.42464 4.51275C2.62419 3.99936 2.86258 3.63292 3.24758 3.24792C3.63241 2.86292 3.99884 2.62453 4.51241 2.42498C4.89998 2.27442 5.48247 2.09516 6.55497 2.04617C7.71495 1.99323 8.06283 1.98206 11 1.98206ZM11 0C8.01264 0 7.63795 0.0127188 6.46473 0.0661719C5.29392 0.119625 4.49419 0.305594 3.79466 0.5775C3.07123 0.858516 2.45781 1.23475 1.84628 1.84628C1.23475 2.45781 0.858516 3.07123 0.5775 3.79466C0.305594 4.49436 0.119625 5.29392 0.0661719 6.46473C0.0127188 7.63795 0 8.01264 0 11C0 13.9874 0.0127188 14.362 0.0661719 15.5353C0.119625 16.7061 0.305594 17.5056 0.5775 18.2053C0.858516 18.9288 1.23475 19.5422 1.84628 20.1537C2.45781 20.7653 3.07123 21.1413 3.79466 21.4225C4.49436 21.6944 5.29392 21.8804 6.46473 21.9338C7.63795 21.9873 8.01264 22 11 22C13.9874 22 14.362 21.9873 15.5353 21.9338C16.7061 21.8804 17.5056 21.6944 18.2053 21.4225C18.9288 21.1413 19.5422 20.7653 20.1537 20.1537C20.7653 19.5422 21.1413 18.9288 21.4225 18.2053C21.6944 17.5056 21.8804 16.7061 21.9338 15.5353C21.9873 14.362 22 13.9874 22 11C22 8.01264 21.9873 7.63795 21.9338 6.46473C21.8804 5.29392 21.6944 4.49436 21.4225 3.79466C21.1413 3.07123 20.7653 2.45781 20.1537 1.84628C19.5422 1.23475 18.9288 0.858687 18.2053 0.5775C17.5056 0.305594 16.7061 0.119625 15.5353 0.0661719C14.362 0.0127188 13.9874 0 11 0Z" fill="url(#paint0_radial_9_139)"/>
<defs>
<radialGradient id="paint0_radial_9_139" cx="0" cy="0" r="1" gradientUnits="userSpaceOnUse" gradientTransform="translate(3.28472 22.0764) scale(28.1105)">
<stop stop-color="#FFB140"/>
<stop offset="0.2559" stop-color="#FF5445"/>
<stop offset="0.599" stop-color="#FC2B82"/>
<stop offset="1" stop-color="#8E40B7"/>
</radialGradient>
</defs>
</svg>
