<svg width="28" height="28" viewBox="0 0 28 28" fill="none" xmlns="http://www.w3.org/2000/svg">
<path d="M20.7185 16.0892C20.664 16.063 18.6227 15.0578 18.26 14.9273C18.1119 14.8741 17.9533 14.8222 17.7845 14.8222C17.5089 14.8222 17.2774 14.9595 17.097 15.2294C16.8931 15.5324 16.2758 16.254 16.0851 16.4695C16.0602 16.498 16.0262 16.532 16.0058 16.532C15.9875 16.532 15.6716 16.4019 15.576 16.3604C13.3863 15.4092 11.7242 13.1218 11.4963 12.7361C11.4637 12.6806 11.4624 12.6555 11.4621 12.6555C11.4701 12.6261 11.5437 12.5523 11.5817 12.5142C11.6929 12.4042 11.8134 12.2592 11.9299 12.1189C11.9851 12.0524 12.0404 11.9859 12.0946 11.9232C12.2637 11.7264 12.339 11.5737 12.4263 11.3968L12.472 11.3049C12.6851 10.8815 12.5031 10.5243 12.4443 10.4089C12.396 10.3124 11.5341 8.23218 11.4425 8.01363C11.2221 7.48627 10.9309 7.24072 10.5263 7.24072C10.4887 7.24072 10.5263 7.24072 10.3688 7.24736C10.1771 7.25545 9.133 7.3929 8.67137 7.6839C8.18182 7.99254 7.35364 8.97636 7.35364 10.7065C7.35364 12.2637 8.34182 13.734 8.76609 14.2932C8.77664 14.3073 8.796 14.3359 8.82409 14.377C10.4489 16.7499 12.4745 18.5084 14.5278 19.3287C16.5046 20.1184 17.4407 20.2096 17.9729 20.2096H17.973C18.1966 20.2096 18.3756 20.1921 18.5335 20.1765L18.6337 20.167C19.3166 20.1065 20.8174 19.3288 21.1587 18.3802C21.4276 17.633 21.4985 16.8166 21.3196 16.5204C21.1971 16.3189 20.9859 16.2175 20.7185 16.0892Z" fill="#132A74"/>
<path d="M14.2485 0C6.66525 0 0.495797 6.12309 0.495797 13.6494C0.495797 16.0836 1.14725 18.4665 2.38134 20.5519L0.0192516 27.5196C-0.0247484 27.6495 0.00797888 27.7932 0.10407 27.891C0.173433 27.9618 0.267524 28 0.363615 28C0.400433 28 0.437524 27.9945 0.473706 27.9829L7.73916 25.6742C9.72734 26.7365 11.9744 27.2972 14.2486 27.2972C21.8312 27.2973 28 21.1748 28 13.6494C28 6.12309 21.8312 0 14.2485 0ZM14.2485 24.454C12.1086 24.454 10.036 23.8361 8.25434 22.667C8.19443 22.6276 8.12489 22.6075 8.05489 22.6075C8.01789 22.6075 7.9808 22.6131 7.94471 22.6245L4.30516 23.7815L5.48007 20.3152C5.51807 20.203 5.49907 20.0793 5.42907 19.9836C4.07234 18.1298 3.35516 15.9395 3.35516 13.6494C3.35516 7.69091 8.24189 2.84327 14.2484 2.84327C20.2543 2.84327 25.1404 7.69091 25.1404 13.6494C25.1405 19.6071 20.2544 24.454 14.2485 24.454Z" fill="#132A74"/>
</svg>
